<?xml version="1.0" encoding="utf-8"?>
<!DOCTYPE svg PUBLIC "-//W3C//DTD SVG 1.0//EN" "http://www.w3.org/TR/2001/REC-SVG-20010904/DTD/svg10.dtd">
<svg version="1.0" xmlns="http://www.w3.org/2000/svg" width="314px" height="340px" viewBox="0 0 314 340" preserveAspectRatio="xMidYMid meet">
 <g fill="#000000">
  <path d="M145.5 337.6 c-16.8 -4.4 -31.2 -16.2 -54.6 -44.8 -44.2 -54 -69 -100.2 -82.2 -153.3 -5.3 -21.3 -7.1 -32.6 -7.1 -46 0 -10.3 0.4 -13.1 2.7 -20 9.9 -29.9 39.6 -52.7 84.2 -64.5 23.7 -6.3 33.9 -7.4 68 -7.5 33.8 0 42.1 0.8 65.3 6.5 47.4 11.6 79.1 35.6 88.8 67.5 2.5 8.1 2.5 27.4 0 41 -11.8 64.6 -39 118.6 -91.2 180.9 -19.3 23 -31.4 33.4 -45.2 38.7 -7.1 2.7 -21.4 3.5 -28.7 1.5z"/>
 </g>
</svg>